<?xml version="1.0" encoding="UTF-8" standalone="no"?>
<!DOCTYPE svg PUBLIC "-//W3C//DTD SVG 20010904//EN" "http://www.w3.org/TR/2001/REC-SVG-20010904/DTD/svg10.dtd">
<svg version="1.0" xmlns="http://www.w3.org/2000/svg" width="383.000000pt" height="399.000000pt" viewBox="0 0 383.000000 399.000000" preserveAspectRatio="xMidYMid meet">

<g transform="translate(0.000000,399.000000) scale(0.100000,-0.100000)" fill="#35477d" stroke="#ffffff">
<path d="M82 3918 c-9 -9 -12 -451 -12 -1929 0 -1752 1 -1917 16 -1923 9 -3 838 -6 1842 -6 1616 0 1828 2 1841 15 13 13 13 19 3 35 -9 15 -12 429 -12 1897 0 1033 -3 1888 -6 1901 l-6 22 -1827 0 c-1408 0 -1830 -3 -1839 -12z m2801 -96 c-119 -93 -213 -162 -249 -182 -21 -12 -48 -30 -59 -40 -37 -32 -150 -89 -261 -131 -60 -22 -113 -45 -118 -50 -6 -5 -20 -9 -33 -9 -12 0 -26 -6 -30 -12 -12 -19 -157 -71 -304 -108 -70 -18 -374 -66 -479 -75 -147 -14 -170 -21 -250 -82 -72 -55 -73 -85 -4 -158 37 -40 38 -40 119 -42 45 -1 102 3 126 8 24 6 98 23 164 39 132 31 229 46 205 31 -8 -5 -42 -14 -75 -20 -105 -19 -408 -104 -508 -142 -26 -10 -73 -24 -104 -31 -43 -10 -66 -23 -100 -55 -56 -55 -56 -79 2 -139 l44 -47 58 6 c32 4 94 15 138 26 105 25 183 35 169 21 -6 -6 -25 -12 -43 -15 -107 -13 -265 -75 -348 -137 -70 -51 -69 -70 0 -142 61 -61 103 -78 182 -70 48 4 169 39 190 55 15 11 253 89 272 89 33 0 -1 -14 -173 -72 -177 -59 -254 -100 -254 -135 0 -29 53 -83 108 -109 42 -20 72 -26 121 -27 107 -1 236 25 301 59 80 42 155 74 174 74 12 0 26 4 32 9 5 5 41 21 79 36 39 15 77 34 86 41 8 8 19 14 23 14 4 0 22 10 39 22 45 32 92 55 129 62 18 4 64 22 102 41 39 18 74 31 80 28 14 -9 -60 -69 -122 -99 -76 -36 -284 -199 -299 -234 -10 -25 -9 -33 11 -62 22 -32 24 -33 92 -31 75 2 265 58 361 107 50 25 213 145 273 201 19 18 63 58 98 89 64 55 122 121 122 137 0 5 26 35 58 68 31 32 71 78 88 102 32 45 56 103 47 112 -2 3 7 30 21 61 14 31 26 59 26 62 0 4 20 37 45 74 25 37 45 70 45 74 0 28 213 281 278 329 15 11 46 38 70 61 l42 40 0 -1707 0 -1707 -1775 0 -1775 0 0 309 0 309 33 21 c17 12 57 37 87 55 30 19 60 39 65 43 6 5 45 37 87 71 43 35 92 77 111 95 65 63 183 211 235 296 81 130 105 165 126 181 11 8 63 56 116 107 52 51 122 110 155 131 236 153 324 203 408 226 82 24 264 56 316 56 53 0 86 -23 71 -50 -11 -21 -198 -127 -280 -159 -80 -32 -159 -74 -177 -93 -22 -25 -9 -66 25 -79 27 -10 102 3 128 22 6 5 37 11 70 15 32 4 84 18 114 31 114 50 249 92 320 98 19 2 58 11 85 21 28 9 55 17 60 18 6 1 28 8 50 16 24 8 87 13 165 13 142 1 181 -12 239 -79 l33 -37 -31 -19 c-30 -19 -66 -27 -221 -48 -41 -6 -86 -15 -100 -20 -14 -5 -74 -16 -135 -25 -229 -33 -400 -68 -448 -92 -20 -10 -27 -20 -25 -36 3 -20 9 -22 71 -22 98 0 201 11 282 30 64 15 132 25 274 41 30 3 93 15 140 26 188 43 253 51 311 35 34 -9 122 -93 118 -113 -4 -19 -75 -56 -148 -77 -82 -23 -177 -36 -355 -47 -180 -11 -262 -21 -485 -56 -182 -30 -226 -50 -184 -85 13 -10 25 -10 67 1 29 7 111 15 182 16 72 1 198 7 280 14 83 8 175 13 205 13 30 0 117 4 194 10 153 10 170 6 200 -43 14 -24 14 -33 4 -49 -16 -26 -70 -48 -133 -56 -27 -3 -99 -14 -160 -25 -60 -10 -155 -24 -210 -30 -55 -6 -129 -15 -165 -20 -36 -5 -123 -11 -194 -15 -71 -4 -139 -11 -152 -15 -25 -10 -32 -34 -12 -46 51 -32 272 -39 515 -15 147 14 240 4 258 -26 6 -9 18 -25 28 -35 31 -33 21 -51 -45 -85 l-63 -31 -285 3 c-237 3 -309 0 -424 -16 -154 -20 -240 -36 -271 -50 -49 -21 -86 -32 -180 -50 -101 -20 -225 -62 -286 -98 -19 -10 -44 -22 -57 -26 -32 -9 -338 -179 -356 -198 -9 -8 -36 -25 -61 -37 -45 -22 -58 -46 -31 -56 15 -6 93 34 131 66 29 25 311 180 327 180 7 0 28 9 47 21 74 45 233 98 346 115 27 4 65 13 83 21 19 8 37 12 40 9 3 -4 12 0 21 8 9 8 32 16 52 19 20 2 41 7 45 10 5 3 68 12 140 21 93 12 220 16 434 17 l303 0 69 35 c103 52 112 90 40 172 -31 35 -46 44 -92 52 -69 13 -184 11 -325 -5 -61 -7 -128 -10 -150 -6 -32 6 -20 8 65 14 58 4 123 11 145 16 22 5 70 12 106 15 37 3 109 13 160 21 52 9 131 22 176 29 104 16 172 59 173 109 0 29 -37 93 -64 110 -29 20 -36 20 -236 11 -85 -4 -152 -4 -149 0 3 3 30 8 60 11 198 18 228 25 347 82 83 40 88 52 46 126 -34 62 -73 93 -134 106 -82 18 -104 15 -385 -49 -66 -15 -145 -21 -145 -12 0 5 19 12 43 15 123 16 320 58 356 76 56 29 65 49 39 92 -28 46 -57 72 -115 100 -44 22 -61 24 -188 24 -129 0 -148 -3 -240 -32 -55 -17 -116 -34 -135 -37 -50 -6 -131 -26 -155 -36 -11 -5 -42 -16 -68 -24 -26 -9 -58 -23 -70 -30 -12 -8 -52 -20 -88 -25 -36 -6 -92 -20 -125 -31 -67 -22 -94 -25 -94 -9 0 10 139 79 161 79 6 0 74 34 149 76 110 61 140 83 153 108 14 30 14 35 -5 64 -25 40 -48 46 -151 39 -255 -18 -394 -73 -687 -270 -14 -9 -47 -32 -75 -50 -27 -19 -67 -55 -88 -80 -21 -26 -53 -55 -70 -64 -59 -30 -188 -179 -170 -197 3 -3 -5 -23 -19 -43 -14 -21 -33 -51 -43 -68 -76 -125 -324 -360 -471 -447 -16 -10 -39 -25 -52 -34 l-22 -16 0 1531 0 1531 1396 0 1396 0 -49 -38z m807 -96 c0 -76 -4 -136 -10 -138 -34 -12 -278 -251 -339 -333 -65 -87 -158 -241 -189 -315 -71 -164 -90 -200 -132 -245 -25 -27 -64 -77 -87 -110 -78 -116 -364 -358 -490 -416 -79 -37 -255 -95 -312 -103 -53 -8 -87 14 -70 45 13 25 194 162 266 201 82 45 140 89 153 118 10 22 9 27 -15 47 -34 30 -44 29 -132 -12 -41 -19 -87 -38 -102 -41 -33 -8 -109 -43 -116 -54 -12 -19 -252 -130 -282 -130 -6 0 -33 -11 -60 -24 -113 -56 -229 -100 -242 -91 -4 2 -27 -1 -52 -7 -71 -18 -147 -10 -202 20 -99 53 -81 83 78 133 96 31 218 73 260 89 11 5 88 29 170 55 83 26 183 59 223 73 107 39 159 98 86 96 -49 0 -144 -13 -188 -25 -47 -13 -48 -13 -136 -46 -60 -23 -193 -62 -283 -84 -33 -8 -141 -47 -192 -70 -68 -30 -118 -43 -180 -46 -70 -4 -71 -4 -128 38 -31 23 -57 46 -57 50 0 17 55 58 124 91 62 31 123 50 276 89 32 8 196 44 245 53 11 3 38 9 60 15 143 36 342 98 393 122 34 16 43 24 40 42 -4 31 -36 32 -99 3 -37 -17 -88 -28 -159 -36 -58 -6 -127 -17 -155 -25 -106 -29 -313 -74 -364 -79 -30 -3 -107 -18 -173 -33 l-118 -27 -27 20 c-43 32 -50 50 -33 80 18 32 47 47 125 69 33 9 76 22 95 30 71 27 398 119 505 141 39 8 102 21 140 28 120 23 152 43 113 70 -42 29 -276 10 -429 -35 -36 -10 -78 -19 -93 -19 -15 0 -35 -4 -45 -10 -10 -5 -55 -12 -100 -16 l-82 -7 -39 39 c-22 21 -40 44 -40 51 0 19 105 94 137 98 15 2 77 9 136 14 59 6 112 13 117 16 4 3 73 14 152 25 142 20 299 57 413 99 33 13 72 25 87 28 15 3 33 11 39 19 6 8 17 14 24 14 7 0 18 7 25 15 7 8 19 15 28 15 49 0 293 116 362 172 19 15 39 28 44 28 10 0 309 225 327 246 9 11 75 14 360 14 l349 0 0 -134z m-1950 -1000 c0 -2 -7 -6 -15 -10 -8 -3 -15 -1 -15 4 0 6 7 10 15 10 8 0 15 -2 15 -4z m-140 -34 c0 -4 -26 -13 -57 -20 -32 -7 -69 -15 -83 -19 -14 -3 -22 -2 -18 2 4 4 40 16 80 25 40 10 74 18 76 19 1 1 2 -3 2 -7z m316 -188 c-22 -8 -45 -13 -50 -10 -6 2 5 8 24 14 52 15 71 13 26 -4z m-76 -24 c-8 -5 -22 -9 -30 -9 -10 0 -8 3 5 9 27 12 43 12 25 0z m-60 -20 c-8 -5 -22 -10 -30 -10 -13 0 -13 1 0 10 8 5 22 10 30 10 13 0 13 -1 0 -10z m430 -870 c0 -5 -12 -10 -27 -9 -25 0 -26 1 -8 9 27 12 35 12 35 0z m-67 -17 c-7 -2 -19 -2 -25 0 -7 3 -2 5 12 5 14 0 19 -2 13 -5z m-60 -10 c-7 -2 -21 -2 -30 0 -10 3 -4 5 12 5 17 0 24 -2 18 -5z m-66 -9 c-3 -3 -12 -4 -19 -1 -8 3 -5 6 6 6 11 1 17 -2 13 -5z m462 -208 c-2 -2 -31 -6 -64 -9 -38 -4 -53 -3 -40 3 19 8 113 14 104 6z m-132 -12 c-3 -3 -12 -4 -19 -1 -8 3 -5 6 6 6 11 1 17 -2 13 -5z"/>
<path d="M1247 1506 c-57 -21 -110 -59 -127 -92 -8 -16 -42 -61 -75 -100 -33 -39 -80 -98 -105 -130 -25 -32 -65 -80 -90 -107 -35 -39 -42 -52 -34 -65 15 -24 184 -79 296 -97 148 -23 231 -21 307 9 132 53 191 104 191 168 0 82 -80 162 -168 167 -10 1 -10 6 -2 21 21 38 10 166 -17 206 -24 35 -107 44 -176 20z"/>
<path d="M1186 443 c-8 -19 1 -33 20 -33 11 0 14 -18 14 -85 0 -68 -3 -83 -14 -79 -18 7 -28 -9 -20 -30 9 -23 102 -23 111 0 3 9 0 19 -6 23 -8 5 -11 26 -9 57 2 38 7 50 22 52 24 5 36 -14 36 -60 0 -24 -6 -40 -17 -46 -10 -6 -14 -16 -10 -26 5 -14 18 -16 59 -14 45 3 53 6 53 23 0 14 -6 19 -17 17 -16 -2 -18 6 -18 61 0 49 -4 68 -18 80 -21 19 -49 22 -72 7 -12 -8 -16 -3 -20 26 -5 34 -7 36 -47 39 -30 2 -43 -1 -47 -12z"/>
<path d="M2015 452 c-13 -13 -3 -33 20 -42 40 -15 31 -33 -14 -25 -32 5 -43 2 -67 -18 -25 -22 -29 -32 -29 -77 0 -44 4 -55 28 -76 33 -28 54 -30 85 -8 12 8 22 10 22 5 0 -18 77 -13 84 5 4 11 -1 18 -14 21 -18 5 -20 14 -20 112 l0 108 -45 0 c-25 0 -47 -3 -50 -5z m24 -126 c17 -20 10 -67 -11 -79 -23 -15 -48 8 -48 42 0 45 35 66 59 37z"/>
<path d="M2736 443 c-8 -19 1 -33 20 -33 11 0 14 -18 14 -85 0 -68 -3 -83 -14 -79 -18 7 -28 -9 -20 -30 9 -23 102 -23 111 0 3 9 0 19 -6 23 -8 5 -11 26 -9 57 2 38 7 50 22 52 24 5 36 -14 36 -60 0 -24 -6 -40 -17 -46 -10 -6 -14 -16 -10 -26 5 -14 18 -16 59 -14 45 3 53 6 53 23 0 14 -6 19 -17 17 -16 -2 -18 6 -18 61 0 49 -4 68 -18 80 -21 19 -49 22 -72 7 -12 -8 -16 -3 -20 26 -5 34 -7 36 -47 39 -30 2 -43 -1 -47 -12z"/>
<path d="M3206 443 c-8 -19 1 -33 20 -33 11 0 14 -18 14 -85 0 -68 -3 -83 -14 -79 -18 7 -28 -9 -20 -31 5 -13 18 -15 63 -13 50 3 56 5 59 27 3 18 0 22 -12 18 -13 -5 -16 9 -18 100 l-3 107 -42 2 c-29 1 -43 -2 -47 -13z"/>
<path d="M3435 452 c-13 -13 -3 -33 20 -42 40 -15 31 -33 -14 -25 -32 5 -43 2 -67 -18 -25 -22 -29 -32 -29 -77 0 -44 4 -55 28 -76 33 -28 54 -30 85 -8 12 8 22 10 22 5 0 -18 77 -13 84 5 4 11 -1 18 -14 21 -18 5 -20 14 -20 112 l0 108 -45 0 c-25 0 -47 -3 -50 -5z m24 -126 c17 -20 10 -67 -11 -79 -23 -15 -48 8 -48 42 0 45 35 66 59 37z"/>
<path d="M2297 444 c-4 -4 -7 -18 -7 -31 0 -13 -6 -23 -14 -23 -23 0 -31 -22 -13 -35 12 -9 17 -28 17 -69 0 -43 5 -61 20 -76 41 -41 115 -9 108 48 -4 34 -35 43 -40 11 -2 -12 -9 -24 -15 -27 -9 -3 -13 12 -13 52 0 56 0 56 30 56 23 0 30 4 30 20 0 15 -7 20 -29 20 -25 0 -30 4 -33 27 -3 27 -26 41 -41 27z"/>
<path d="M1480 388 c-29 -16 -33 -46 -7 -62 15 -9 22 -7 38 13 11 13 25 21 34 17 35 -13 9 -40 -48 -50 -27 -5 -41 -14 -49 -32 -26 -55 37 -104 93 -72 24 14 28 14 42 1 10 -10 24 -13 41 -9 31 8 34 31 6 46 -16 9 -20 21 -20 68 0 31 -4 63 -9 71 -12 19 -91 25 -121 9z m78 -120 c-8 -22 -36 -34 -50 -20 -10 10 -10 15 2 22 21 14 52 12 48 -2z"/>
<path d="M1778 386 c-16 -9 -28 -10 -28 -5 0 6 -17 9 -37 7 -31 -2 -39 -7 -41 -27 -3 -18 0 -22 12 -18 13 5 16 -2 16 -48 0 -46 -3 -53 -16 -48 -12 4 -15 0 -12 -18 3 -21 9 -24 56 -27 46 -3 52 -1 52 17 0 11 -4 23 -10 26 -16 10 -12 81 5 95 28 23 45 4 45 -50 0 -27 -4 -50 -10 -50 -5 0 -10 -9 -10 -20 0 -18 7 -20 55 -20 53 0 55 1 55 26 0 19 -4 25 -15 20 -12 -4 -15 5 -15 54 0 89 -37 120 -102 86z"/>
<path d="M2483 390 c-12 -5 -29 -22 -37 -39 -56 -108 62 -215 145 -132 38 38 41 106 7 146 -25 28 -79 40 -115 25z m77 -70 c14 -56 -20 -99 -55 -70 -18 15 -20 71 -3 88 20 20 51 10 58 -18z"/>
<path d="M3043 390 c-12 -5 -29 -22 -37 -39 -56 -108 62 -215 145 -132 38 38 41 106 7 146 -25 28 -79 40 -115 25z m77 -70 c14 -56 -20 -99 -55 -70 -18 15 -20 71 -3 88 20 20 51 10 58 -18z"/>
<path d="M2544 3270 c-85 -17 -232 -109 -260 -162 -37 -71 3 -165 84 -199 24 -11 56 -19 70 -19 26 0 27 -1 24 -55 -4 -61 16 -125 51 -162 59 -64 267 24 291 123 4 16 29 61 54 101 26 39 67 108 92 153 25 45 57 97 73 117 48 63 40 71 -109 97 -96 17 -298 20 -370 6z m193 -36 c-3 -3 -12 -4 -19 -1 -8 3 -5 6 6 6 11 1 17 -2 13 -5z m-291 -59 c-11 -8 -25 -15 -30 -15 -6 1 0 7 14 15 32 19 40 18 16 0z m435 -148 c-10 -9 -11 -8 -5 6 3 10 9 15 12 12 3 -3 0 -11 -7 -18z"/>
</g>
</svg>